<svg xmlns="http://www.w3.org/2000/svg" width="40.856" height="40.857" viewBox="0 0 40.856 40.857">
  <g id="Group_11" data-name="Group 11" transform="translate(0.25 0.25)">
    <path id="Path_6" data-name="Path 6" d="M43.077,24.6H10.2a.6.6,0,0,0-.39.075L3.89,27.66A.774.774,0,0,0,3.89,29l5.921,2.985a.729.729,0,0,0,.39.075H43.077a.721.721,0,0,0,.779-.746V25.346A.721.721,0,0,0,43.077,24.6ZM10.356,26.093H37.624v1.493H13.472v1.493H37.624v1.493H11.135V27.585H9.577V30.2L5.915,28.332ZM42.3,30.571H39.182V26.093H42.3Z" transform="translate(-3.5 -8.019)" fill="#fff" stroke="#fff" stroke-width="0.5"/>
    <path id="Path_7" data-name="Path 7" d="M8.793,7.839a.705.705,0,0,1,.746-.746H22.227a.705.705,0,0,1,.746.746v8.21h1.493V7.839A2.2,2.2,0,0,0,22.227,5.6H9.539A2.2,2.2,0,0,0,7.3,7.839v8.21H8.793Z" transform="translate(-4.464 -1.42)" fill="#fff" stroke="#fff" stroke-width="0.5"/>
    <path id="Path_8" data-name="Path 8" d="M43.973,48.3a.705.705,0,0,1-.746.746H30.539a.705.705,0,0,1-.746-.746V38.6H28.3v9.7a2.2,2.2,0,0,0,2.239,2.239H43.227A2.2,2.2,0,0,0,45.466,48.3V38.6H43.973Z" transform="translate(-8.095 -13.32)" fill="#fff" stroke="#fff" stroke-width="0.5"/>
    <path id="Path_9" data-name="Path 9" d="M7.829,45.93V36.6H6.336v9.33A3.617,3.617,0,0,0,3.5,49.512a3.657,3.657,0,1,0,7.314,0A3.614,3.614,0,0,0,7.829,45.93Zm-.672,5.747a2.164,2.164,0,1,1,2.164-2.164A2.166,2.166,0,0,1,7.157,51.676Z" transform="translate(-3.5 -12.813)" fill="#fff" stroke="#fff" stroke-width="0.5"/>
    <path id="Path_10" data-name="Path 10" d="M48.336,7.24v7.389h1.493V7.24a3.614,3.614,0,0,0,2.985-3.583A3.657,3.657,0,1,0,48.336,7.24Zm.821-5.747a2.164,2.164,0,1,1-2.164,2.164A2.166,2.166,0,0,1,49.157,1.493Z" transform="translate(-12.458 0)" fill="#fff" stroke="#fff" stroke-width="0.5"/>
  </g>
</svg>
