<svg xmlns="http://www.w3.org/2000/svg" width="40.856" height="40.857" viewBox="0 0 40.856 40.857">
  <g id="knowledge" transform="translate(0.25 0.25)">
    <g id="Group_9" data-name="Group 9">
      <path id="Path_1" data-name="Path 1" d="M19.588,554.194a4.4,4.4,0,0,0-.642-2.263,4.326,4.326,0,0,0,.642-2.263,4.587,4.587,0,0,0-2.5-4.028,4.566,4.566,0,0,0-4.478-5.28,3.892,3.892,0,0,0-2.849,1.252,5.082,5.082,0,0,0-3.21-1.252,4.573,4.573,0,0,0-3.242,1.34,4.473,4.473,0,0,0-1.356,3.194,5.12,5.12,0,0,0,.12,1A4.442,4.442,0,0,0,.634,551.94,4.385,4.385,0,0,0,0,554.194a4.581,4.581,0,0,0,2.022,3.74,4.393,4.393,0,0,0-.064.722,4.569,4.569,0,0,0,4.6,4.534,5.081,5.081,0,0,0,3.21-1.252,3.921,3.921,0,0,0,2.849,1.252h0a4.507,4.507,0,0,0,4.534-4.526c0-.144,0-.313-.016-.489A4.456,4.456,0,0,0,19.588,554.194Zm-2.239-1.8a2.934,2.934,0,0,1,.642,1.789,2.861,2.861,0,0,1-2.014,2.72.8.8,0,0,0-.5,1.067,2.215,2.215,0,0,1,.064.682,2.9,2.9,0,0,1-2.929,2.929,2.653,2.653,0,0,1-2.175-1.332.813.813,0,0,0-.642-.321h0a.841.841,0,0,0-.65.321,3.519,3.519,0,0,1-2.6,1.332,2.965,2.965,0,0,1-2.993-2.929,2.631,2.631,0,0,1,.144-.851.8.8,0,0,0-.385-.963A3.058,3.058,0,0,1,1.6,554.187a2.934,2.934,0,0,1,.642-1.79.807.807,0,0,0-.024-.971,2.853,2.853,0,0,1,1.115-4.4.806.806,0,0,0,.441-.955,4.473,4.473,0,0,1-.217-1.188,3,3,0,0,1,2.993-2.929,3.518,3.518,0,0,1,2.6,1.332.8.8,0,0,0,1.284,0,2.663,2.663,0,0,1,2.175-1.332,2.935,2.935,0,0,1,2.929,2.929,3.252,3.252,0,0,1-.144.971.827.827,0,0,0,.048.618.807.807,0,0,0,.473.4,3.019,3.019,0,0,1,2.07,2.784,2.934,2.934,0,0,1-.642,1.79A.794.794,0,0,0,17.349,552.4Z" transform="translate(0 -540.36)" fill="#fff" stroke="#fff" stroke-width="0.5"/>
      <path id="Path_2" data-name="Path 2" d="M90.759,853.292H85.078v-5.457l1.075,1.075a.788.788,0,0,0,.57.233.822.822,0,0,0,.57-.233.8.8,0,0,0,0-1.131l-2.448-2.448-.008-.008a.349.349,0,0,0-.056-.048c-.008-.008-.024-.016-.032-.024s-.024-.016-.032-.024a.173.173,0,0,0-.04-.024.061.061,0,0,0-.032-.016c-.016-.008-.024-.016-.04-.016s-.024-.008-.032-.016-.024-.008-.04-.016-.024-.008-.04-.016-.024-.008-.04-.008-.024-.008-.04-.008-.032-.008-.048-.008a.048.048,0,0,1-.032-.008.54.54,0,0,0-.16,0,.048.048,0,0,0-.032.008.1.1,0,0,0-.048.008c-.016,0-.024.008-.04.008s-.024.008-.04.008-.024.008-.04.016-.024.008-.04.016-.024.008-.032.016-.024.008-.04.016-.024.008-.032.016-.024.016-.04.024-.024.016-.032.024-.024.016-.032.024a.349.349,0,0,1-.056.048l-.008.008-2.448,2.448a.8.8,0,0,0,1.131,1.131l1.075-1.075v6.259a.8.8,0,0,0,.8.8H90.7a.8.8,0,0,0,.8-.8A.754.754,0,0,0,90.759,853.292Z" transform="translate(-74.206 -819.436)" fill="#fff" stroke="#fff" stroke-width="0.5"/>
      <path id="Path_3" data-name="Path 3" d="M263.488,753.161a4.541,4.541,0,0,1-2.439-4.767,4.521,4.521,0,0,0-4.534-4.534,3.892,3.892,0,0,0-2.849,1.252,5.082,5.082,0,0,0-3.21-1.252,4.569,4.569,0,0,0-4.6,4.534,4.314,4.314,0,0,0,.112.947,4.48,4.48,0,0,0-1.436,6.075,4.335,4.335,0,0,0-.634,2.215,4.484,4.484,0,0,0,2.022,3.764,3.91,3.91,0,0,0-.064.762,4.473,4.473,0,0,0,1.356,3.194,4.586,4.586,0,0,0,3.242,1.34,5.082,5.082,0,0,0,3.21-1.252,3.921,3.921,0,0,0,2.849,1.252,4.524,4.524,0,0,0,4.526-4.542c0-.16,0-.321-.008-.489a4.581,4.581,0,0,0,2.456-4.036,4.334,4.334,0,0,0-.634-2.215A4.585,4.585,0,0,0,263.488,753.161Zm-2.207,2.76a2.788,2.788,0,0,1,.618,1.7,2.938,2.938,0,0,1-2.014,2.785.8.8,0,0,0-.5,1.067,1.894,1.894,0,0,1,.064.682,2.935,2.935,0,0,1-2.929,2.929,2.653,2.653,0,0,1-2.175-1.332.809.809,0,0,0-1.284-.008,3.519,3.519,0,0,1-2.6,1.332,3,3,0,0,1-2.993-2.929,2.825,2.825,0,0,1,.144-.907.8.8,0,0,0-.417-.979,2.908,2.908,0,0,1-1.685-2.64,2.788,2.788,0,0,1,.618-1.7.807.807,0,0,0,.024-.971,3.093,3.093,0,0,1-.642-1.789,2.968,2.968,0,0,1,1.733-2.7.806.806,0,0,0,.441-.955,3.859,3.859,0,0,1-.217-1.123,2.97,2.97,0,0,1,2.993-2.929,3.518,3.518,0,0,1,2.6,1.332.8.8,0,0,0,1.284,0,2.663,2.663,0,0,1,2.175-1.332,2.9,2.9,0,0,1,2.929,2.929,3.251,3.251,0,0,1-.144.971.827.827,0,0,0,.048.618.807.807,0,0,0,.473.4,2.943,2.943,0,0,1,2.07,2.785,3.093,3.093,0,0,1-.642,1.789A.807.807,0,0,0,261.281,755.921Z" transform="translate(-223.132 -726.334)" fill="#fff" stroke="#fff" stroke-width="0.5"/>
      <path id="Path_4" data-name="Path 4" d="M366.1,987.76Z" transform="translate(-335.825 -950.661)" fill="#fff" stroke="#fff" stroke-width="0.5"/>
      <path id="Path_5" data-name="Path 5" d="M276.1,602.965h5.681v5.457l-1.075-1.075a.8.8,0,0,0-1.132,1.132l2.448,2.448.008.008a.349.349,0,0,0,.056.048c.008.008.024.016.032.024s.024.016.032.024.024.016.032.024a.061.061,0,0,0,.032.016c.016.008.024.008.04.016s.024.008.032.016.024.008.04.016.024.008.04.016.024.008.04.008.024.008.04.008a.351.351,0,0,1,.04.008.048.048,0,0,1,.032.008h.16a.048.048,0,0,0,.032-.008.061.061,0,0,0,.04-.008c.016,0,.024-.008.04-.008s.024-.008.04-.008.024-.008.04-.016.024-.008.04-.016.024-.008.032-.016.024-.008.04-.016a.061.061,0,0,1,.032-.016.111.111,0,0,0,.032-.024c.008-.008.024-.016.032-.024s.024-.016.032-.024a.35.35,0,0,1,.056-.048l.008-.008,2.448-2.448a.831.831,0,0,0-.032-1.132h0a.8.8,0,0,0-1.131,0l-1.075,1.075v-6.259a.8.8,0,0,0-.8-.8H276.1a.8.8,0,1,0,0,1.6Z" transform="translate(-252.285 -596.465)" fill="#fff" stroke="#fff" stroke-width="0.5"/>
    </g>
  </g>
</svg>
