<svg xmlns="http://www.w3.org/2000/svg" width="40.356" height="40.356" viewBox="0 0 40.356 40.356">
  <path id="monitor" d="M1.715,0A2.522,2.522,0,0,0,0,2.523V27.739a2.522,2.522,0,0,0,2.522,2.522h12.61V35.3H10.089a5.059,5.059,0,0,0-5.044,5.043H35.309A5.059,5.059,0,0,0,30.265,35.3H25.221V30.261h12.61a2.522,2.522,0,0,0,2.522-2.522V2.523A2.522,2.522,0,0,0,37.831,0H2.522a2.523,2.523,0,0,0-.454,0,2.522,2.522,0,0,0-.3,0ZM5.044,5.044H35.309V25.218H5.044Z" transform="translate(0.003 0.009)" fill="#fff"/>
</svg>
