<svg xmlns="http://www.w3.org/2000/svg" width="40.356" height="40.357" viewBox="0 0 40.356 40.357">
  <g id="selection_1" data-name="selection 1" transform="translate(0)">
    <g id="Group" transform="translate(0 0)">
      <g id="Group-2" data-name="Group">
        <g id="Vector" transform="translate(40.356 40.357) rotate(180)" fill="#fff">
          <path d="M 7.21607780456543 40.10660171508789 L 0.9990178346633911 40.10655975341797 C 0.5934078097343445 40.10655975341797 0.2573778033256531 39.76855087280273 0.249957799911499 39.35308074951172 L 0.2499978095293045 33.13589859008789 C 0.2499978095293045 32.72834014892578 0.586007833480835 32.39677047729492 0.9990178346633911 32.39677047729492 L 3.165197849273682 32.39677047729492 L 3.415197849273682 32.39677047729492 L 3.415197849273682 32.14677047729492 L 3.415197849273682 8.209790229797363 L 3.415197849273682 7.959789752960205 L 3.165197849273682 7.959789752960205 L 0.9990178346633911 7.959789752960205 C 0.5934377908706665 7.959789752960205 0.2574078142642975 7.626179695129395 0.249957799911499 7.216119766235352 L 0.2499978095293045 0.9990298748016357 C 0.2499978095293045 0.5934098958969116 0.5880078077316284 0.2573798894882202 1.003477811813354 0.249959871172905 L 7.220617771148682 0.2499998807907104 C 7.628167629241943 0.2499998807907104 7.959737777709961 0.5860098600387573 7.959737777709961 0.9990298748016357 L 7.959737777709961 3.165219783782959 L 7.959737777709961 3.415219783782959 L 8.209737777709961 3.415219783782959 L 32.14656829833984 3.415219783782959 L 32.39656829833984 3.415219783782959 L 32.39656829833984 3.165219783782959 L 32.39656829833984 0.9990298748016357 C 32.39656829833984 0.5934498906135559 32.73017883300781 0.2574098706245422 33.14023590087891 0.249959871172905 L 39.35729598999023 0.2499998807907104 C 39.76290893554688 0.2499998807907104 40.09892654418945 0.588019847869873 40.10635757446289 1.003499865531921 L 40.10631942749023 7.220659732818604 C 40.10631942749023 7.628220081329346 39.77030944824219 7.959789752960205 39.35729598999023 7.959789752960205 L 37.19110870361328 7.959789752960205 L 36.94110870361328 7.959789752960205 L 36.94110870361328 8.209790229797363 L 36.94110870361328 32.14677047729492 L 36.94110870361328 32.39677047729492 L 37.19110870361328 32.39677047729492 L 39.35729598999023 32.39677047729492 C 39.76286697387695 32.39677047729492 40.09889602661133 32.73038101196289 40.10635757446289 33.14044952392578 L 40.10631942749023 39.35754013061523 C 40.10631942749023 39.77054977416992 39.77030944824219 40.10655975341797 39.35729598999023 40.10655975341797 L 33.13569641113281 40.10655975341797 C 32.7281379699707 40.10655975341797 32.39656829833984 39.77054977416992 32.39656829833984 39.35754013061523 L 32.39656829833984 37.19132995605469 L 32.39656829833984 36.94132995605469 L 32.14656829833984 36.94132995605469 L 8.209737777709961 36.94132995605469 L 7.959737777709961 36.94132995605469 L 7.959737777709961 37.19132995605469 L 7.959737777709961 39.35754013061523 C 7.959737777709961 39.76311874389648 7.62612771987915 40.09915161132812 7.21607780456543 40.10660171508789 Z M 33.87482833862305 33.87503051757812 L 33.87482833862305 34.12503051757812 L 33.87482833862305 38.37828826904297 L 33.87482833862305 38.62828826904297 L 34.12482833862305 38.62828826904297 L 38.37806701660156 38.62828826904297 L 38.62806701660156 38.62828826904297 L 38.62806701660156 38.37828826904297 L 38.62806701660156 34.12503051757812 L 38.62806701660156 33.87503051757812 L 38.37806701660156 33.87503051757812 L 34.12482833862305 33.87503051757812 L 33.87482833862305 33.87503051757812 Z M 1.728247761726379 33.87503051757812 L 1.728247761726379 34.12503051757812 L 1.728247761726379 38.37828826904297 L 1.728247761726379 38.62828826904297 L 1.978247761726379 38.62828826904297 L 6.23148775100708 38.62828826904297 L 6.48148775100708 38.62828826904297 L 6.48148775100708 38.37828826904297 L 6.48148775100708 34.12503051757812 L 6.48148775100708 33.87503051757812 L 6.23148775100708 33.87503051757812 L 1.978247761726379 33.87503051757812 L 1.728247761726379 33.87503051757812 Z M 4.893447875976562 7.959789752960205 L 4.893447875976562 8.209790229797363 L 4.893447875976562 32.14677047729492 L 4.893447875976562 32.39677047729492 L 5.143447875976562 32.39677047729492 L 7.220617771148682 32.39677047729492 C 7.628167629241943 32.39677047729492 7.959737777709961 32.72834014892578 7.959737777709961 33.13589859008789 L 7.959737777709961 35.21308135986328 L 7.959737777709961 35.46308135986328 L 8.209737777709961 35.46308135986328 L 32.14656829833984 35.46308135986328 L 32.39656829833984 35.46308135986328 L 32.39656829833984 35.21308135986328 L 32.39656829833984 33.13589859008789 C 32.39656829833984 32.72834014892578 32.7281379699707 32.39677047729492 33.13569641113281 32.39677047729492 L 35.21286773681641 32.39677047729492 L 35.46286773681641 32.39677047729492 L 35.46286773681641 32.14677047729492 L 35.46286773681641 8.209790229797363 L 35.46286773681641 7.959789752960205 L 35.21286773681641 7.959789752960205 L 33.13569641113281 7.959789752960205 C 32.7281379699707 7.959789752960205 32.39656829833984 7.628220081329346 32.39656829833984 7.220659732818604 L 32.39656829833984 5.143479824066162 L 32.39656829833984 4.893479824066162 L 32.14656829833984 4.893479824066162 L 8.209737777709961 4.893479824066162 L 7.959737777709961 4.893479824066162 L 7.959737777709961 5.143479824066162 L 7.959737777709961 7.220659732818604 C 7.959737777709961 7.628220081329346 7.628167629241943 7.959789752960205 7.220617771148682 7.959789752960205 L 5.143447875976562 7.959789752960205 L 4.893447875976562 7.959789752960205 Z M 33.87482833862305 1.728259921073914 L 33.87482833862305 1.978259921073914 L 33.87482833862305 6.231529712677002 L 33.87482833862305 6.481529712677002 L 34.12482833862305 6.481529712677002 L 38.37806701660156 6.481529712677002 L 38.62806701660156 6.481529712677002 L 38.62806701660156 6.231529712677002 L 38.62806701660156 1.978259921073914 L 38.62806701660156 1.728259921073914 L 38.37806701660156 1.728259921073914 L 34.12482833862305 1.728259921073914 L 33.87482833862305 1.728259921073914 Z M 1.728247761726379 1.728259921073914 L 1.728247761726379 1.978259921073914 L 1.728247761726379 6.231529712677002 L 1.728247761726379 6.481529712677002 L 1.978247761726379 6.481529712677002 L 6.23148775100708 6.481529712677002 L 6.48148775100708 6.481529712677002 L 6.48148775100708 6.231529712677002 L 6.48148775100708 1.978259921073914 L 6.48148775100708 1.728259921073914 L 6.23148775100708 1.728259921073914 L 1.978247761726379 1.728259921073914 L 1.728247761726379 1.728259921073914 Z" stroke="none"/>
          <path d="M 39.35729598999023 39.85655975341797 C 39.63711929321289 39.85655975341797 39.85631942749023 39.63735961914062 39.85631942749023 39.35754013061523 L 39.85631942749023 33.1413459777832 C 39.84940338134766 32.8682975769043 39.62630462646484 32.64677047729492 39.35729598999023 32.64677047729492 L 36.69110870361328 32.64677047729492 L 36.69110870361328 7.709789752960205 L 39.35729598999023 7.709789752960205 C 39.6324577331543 7.709789752960205 39.85631942749023 7.49036979675293 39.85631942749023 7.220659732818604 L 39.85631942749023 1.004239916801453 C 39.84939193725586 0.725864589214325 39.62629318237305 0.4999998807907104 39.35729598999023 0.4999998807907104 L 33.14112854003906 0.4999998807907104 C 32.86809158325195 0.506906270980835 32.64656829833984 0.7300138473510742 32.64656829833984 0.9990298748016357 L 32.64656829833984 3.665219783782959 L 7.709737777709961 3.665219783782959 L 7.709737777709961 0.9990298748016357 C 7.709737777709961 0.7238599061965942 7.490317821502686 0.4999998807907104 7.220617771148682 0.4999998807907104 L 1.004222869873047 0.4999998807907104 C 0.725847601890564 0.5069161653518677 0.4999977946281433 0.7300238013267517 0.4999977946281433 0.9990298748016357 L 0.4999977946281433 7.21522855758667 C 0.5069041848182678 7.488266468048096 0.7300117611885071 7.709789752960205 0.9990178346633911 7.709789752960205 L 3.665197849273682 7.709789752960205 L 3.665197849273682 32.64677047729492 L 0.9990178346633911 32.64677047729492 C 0.7238578200340271 32.64677047729492 0.4999977946281433 32.86618804931641 0.4999977946281433 33.13589859008789 L 0.4999977946281433 39.35233306884766 C 0.5069140791893005 39.63071060180664 0.7300217151641846 39.85655975341797 0.9990178346633911 39.85655975341797 L 7.21518611907959 39.85655975341797 C 7.488214492797852 39.84965515136719 7.709737777709961 39.62654495239258 7.709737777709961 39.35754013061523 L 7.709737777709961 36.69132995605469 L 32.64656829833984 36.69132995605469 L 32.64656829833984 39.35754013061523 C 32.64656829833984 39.63269805908203 32.86598968505859 39.85655975341797 33.13569641113281 39.85655975341797 L 39.35729598999023 39.85655975341797 M 33.62482833862305 33.62503051757812 L 38.87806701660156 33.62503051757812 L 38.87806701660156 38.87828826904297 L 33.62482833862305 38.87828826904297 L 33.62482833862305 33.62503051757812 M 1.478247761726379 33.62503051757812 L 6.73148775100708 33.62503051757812 L 6.73148775100708 38.87828826904297 L 1.478247761726379 38.87828826904297 L 1.478247761726379 33.62503051757812 M 4.643447875976562 7.709789752960205 L 7.220617771148682 7.709789752960205 C 7.490317821502686 7.709789752960205 7.709737777709961 7.49036979675293 7.709737777709961 7.220659732818604 L 7.709737777709961 4.643479824066162 L 32.64656829833984 4.643479824066162 L 32.64656829833984 7.220659732818604 C 32.64656829833984 7.49036979675293 32.86598968505859 7.709789752960205 33.13569641113281 7.709789752960205 L 35.71286773681641 7.709789752960205 L 35.71286773681641 32.64677047729492 L 33.13569641113281 32.64677047729492 C 32.86598968505859 32.64677047729492 32.64656829833984 32.86618804931641 32.64656829833984 33.13589859008789 L 32.64656829833984 35.71308135986328 L 7.709737777709961 35.71308135986328 L 7.709737777709961 33.13589859008789 C 7.709737777709961 32.86618804931641 7.490317821502686 32.64677047729492 7.220617771148682 32.64677047729492 L 4.643447875976562 32.64677047729492 L 4.643447875976562 7.709789752960205 M 33.62482833862305 1.478259921073914 L 38.87806701660156 1.478259921073914 L 38.87806701660156 6.731529712677002 L 33.62482833862305 6.731529712677002 L 33.62482833862305 1.478259921073914 M 1.478247761726379 1.478259921073914 L 6.73148775100708 1.478259921073914 L 6.73148775100708 6.731529712677002 L 1.478247761726379 6.731529712677002 L 1.478247761726379 1.478259921073914 M 39.35729598999023 40.35655975341797 L 33.13569641113281 40.35655975341797 C 32.59167861938477 40.35655975341797 32.14656829833984 39.91144943237305 32.14656829833984 39.35754013061523 L 32.14656829833984 37.19132995605469 L 8.209737777709961 37.19132995605469 L 8.209737777709961 39.35754013061523 C 8.209737777709961 39.90156173706055 7.76463794708252 40.3466682434082 7.220617771148682 40.35655975341797 L 0.9990178346633911 40.35655975341797 C 0.4549978077411652 40.35655975341797 0.009887806139886379 39.91144943237305 -2.193603449995862e-06 39.35754013061523 L -2.193603449995862e-06 33.13589859008789 C -2.193603449995862e-06 32.59188079833984 0.4451078176498413 32.14677047729492 0.9990178346633911 32.14677047729492 L 3.165197849273682 32.14677047729492 L 3.165197849273682 8.209790229797363 L 0.9990178346633911 8.209790229797363 C 0.4549978077411652 8.209790229797363 0.009887806139886379 7.764679908752441 -2.193603449995862e-06 7.220659732818604 L -2.193603449995862e-06 0.9990298748016357 C -2.193603449995862e-06 0.4549998641014099 0.4451078176498413 0.009889876469969749 0.9990178346633911 -1.232910165072099e-07 L 7.220617771148682 -1.232910165072099e-07 C 7.76463794708252 -1.232910165072099e-07 8.209737777709961 0.4451098740100861 8.209737777709961 0.9990298748016357 L 8.209737777709961 3.165219783782959 L 32.14656829833984 3.165219783782959 L 32.14656829833984 0.9990298748016357 C 32.14656829833984 0.4549998641014099 32.59167861938477 0.009889876469969749 33.13569641113281 -1.232910165072099e-07 L 39.35729598999023 -1.232910165072099e-07 C 39.90131759643555 -1.232910165072099e-07 40.34641647338867 0.4451098740100861 40.35631942749023 0.9990298748016357 L 40.35631942749023 7.220659732818604 C 40.35631942749023 7.764679908752441 39.91120910644531 8.209790229797363 39.35729598999023 8.209790229797363 L 37.19110870361328 8.209790229797363 L 37.19110870361328 32.14677047729492 L 39.35729598999023 32.14677047729492 C 39.90131759643555 32.14677047729492 40.34641647338867 32.59188079833984 40.35631942749023 33.13589859008789 L 40.35631942749023 39.35754013061523 C 40.35631942749023 39.91144943237305 39.91120910644531 40.35655975341797 39.35729598999023 40.35655975341797 Z M 34.12482833862305 34.12503051757812 L 34.12482833862305 38.37828826904297 L 38.37806701660156 38.37828826904297 L 38.37806701660156 34.12503051757812 L 34.12482833862305 34.12503051757812 Z M 1.978247761726379 34.12503051757812 L 1.978247761726379 38.37828826904297 L 6.23148775100708 38.37828826904297 L 6.23148775100708 34.12503051757812 L 1.978247761726379 34.12503051757812 Z M 5.143447875976562 8.209790229797363 L 5.143447875976562 32.14677047729492 L 7.220617771148682 32.14677047729492 C 7.76463794708252 32.14677047729492 8.209737777709961 32.59188079833984 8.209737777709961 33.13589859008789 L 8.209737777709961 35.21308135986328 L 32.14656829833984 35.21308135986328 L 32.14656829833984 33.13589859008789 C 32.14656829833984 32.59188079833984 32.59167861938477 32.14677047729492 33.13569641113281 32.14677047729492 L 35.21286773681641 32.14677047729492 L 35.21286773681641 8.209790229797363 L 33.13569641113281 8.209790229797363 C 32.59167861938477 8.209790229797363 32.14656829833984 7.764679908752441 32.14656829833984 7.220659732818604 L 32.14656829833984 5.143479824066162 L 8.209737777709961 5.143479824066162 L 8.209737777709961 7.220659732818604 C 8.209737777709961 7.764679908752441 7.76463794708252 8.209790229797363 7.220617771148682 8.209790229797363 L 5.143447875976562 8.209790229797363 Z M 34.12482833862305 1.978259921073914 L 34.12482833862305 6.231529712677002 L 38.37806701660156 6.231529712677002 L 38.37806701660156 1.978259921073914 L 34.12482833862305 1.978259921073914 Z M 1.978247761726379 1.978259921073914 L 1.978247761726379 6.231529712677002 L 6.23148775100708 6.231529712677002 L 6.23148775100708 1.978259921073914 L 1.978247761726379 1.978259921073914 Z" stroke="none" fill="#fff"/>
        </g>
      </g>
    </g>
  </g>
</svg>
