<svg xmlns="http://www.w3.org/2000/svg" xmlns:xlink="http://www.w3.org/1999/xlink" width="16.759" height="30.629" viewBox="0 0 16.759 30.629">
  <defs>
    <clipPath id="clip-path">
      <path id="facebook" d="M3.862,30.629H10.31V17.716h5.81l.638-6.416H10.31V8.06a1.612,1.612,0,0,1,1.612-1.612h4.836V0H11.922a8.06,8.06,0,0,0-8.06,8.06V11.3H.638L0,17.716H3.862Z" fill="#3c5b9a"/>
    </clipPath>
  </defs>
  <g id="facebook-2" data-name="facebook" transform="translate(0 0)">
    <path id="facebook-3" data-name="facebook" d="M3.862,30.629H10.31V17.716h5.81l.638-6.416H10.31V8.06a1.612,1.612,0,0,1,1.612-1.612h4.836V0H11.922a8.06,8.06,0,0,0-8.06,8.06V11.3H.638L0,17.716H3.862Z" transform="translate(0 0)" fill="#3c5b9a"/>
  </g>
</svg>
