<svg id="facebook_copy_2" data-name="facebook copy 2" xmlns="http://www.w3.org/2000/svg" width="46.426" height="46.426" viewBox="0 0 46.426 46.426">
  <path id="icon" d="M22.342,33.6H9.575A9.848,9.848,0,0,1,0,23.519V10.079A9.848,9.848,0,0,1,9.575,0H22.342a9.848,9.848,0,0,1,9.575,10.079v13.44A9.848,9.848,0,0,1,22.342,33.6ZM9.575,3.36a6.565,6.565,0,0,0-6.384,6.718v13.44a6.565,6.565,0,0,0,6.384,6.718H22.342a6.565,6.565,0,0,0,6.384-6.718V10.079A6.565,6.565,0,0,0,22.342,3.36ZM15.96,25.2a8.208,8.208,0,0,1-7.981-8.4A8.207,8.207,0,0,1,15.96,8.4a8.206,8.206,0,0,1,7.979,8.4A8.207,8.207,0,0,1,15.96,25.2Zm0-13.44a4.924,4.924,0,0,0-4.788,5.04,4.924,4.924,0,0,0,4.788,5.04,4.924,4.924,0,0,0,4.788-5.04A4.924,4.924,0,0,0,15.96,11.759Zm7.979-1.68a1.681,1.681,0,1,1,1.6-1.678A1.641,1.641,0,0,1,23.939,10.079Z" transform="translate(7.738 5.804)" fill="#ff5552"/>
</svg>
