<svg id="facebook_copy" data-name="facebook copy" xmlns="http://www.w3.org/2000/svg" xmlns:xlink="http://www.w3.org/1999/xlink" width="46.426" height="46.426" viewBox="0 0 46.426 46.426">
  <defs>
    <clipPath id="clip-path">
      <path id="icon_social_twitter_24px" data-name="icon/social/twitter_24px" d="M10.9,26.446a17.133,17.133,0,0,1-7.11-1.452,13.56,13.56,0,0,1-2.758-1.56A2.645,2.645,0,0,1,2.717,18.7c.491.014.951.005,1.381-.019a6.472,6.472,0,0,1-1.422-2.733,2.659,2.659,0,0,1-.05-.817,7.892,7.892,0,0,1-.472-.635A7.238,7.238,0,0,1,.9,9.99c.009-.134.009-.134.019-.216a2.624,2.624,0,0,1,.359-1.06,8.514,8.514,0,0,1,.092-5.15,8.158,8.158,0,0,1,.489-1.24A2.644,2.644,0,0,1,6.225,1.8a13.75,13.75,0,0,0,5.651,4.245c.225.082.442.15.649.205C13.1,2.6,15.508.418,17.817.223A10.427,10.427,0,0,1,24.474,1c.1.049.2.1.3.15L26.633.4a2.645,2.645,0,0,1,3.6,2.883A2.63,2.63,0,0,1,30.06,7.06l-1.906,1.7a14.462,14.462,0,0,1-1.147,6.073,19.335,19.335,0,0,1-6.595,8.5,17.034,17.034,0,0,1-6.144,2.73,14.648,14.648,0,0,1-3.138.382Z" transform="translate(0 0)" fill="#37474f"/>
    </clipPath>
  </defs>
  <g id="Group_2" data-name="Group 2" transform="translate(7.738 9.989)">
    <path id="icon_social_twitter_24px-2" data-name="icon/social/twitter_24px" d="M10.9,26.446a17.133,17.133,0,0,1-7.11-1.452,13.56,13.56,0,0,1-2.758-1.56A2.645,2.645,0,0,1,2.717,18.7c.491.014.951.005,1.381-.019a6.472,6.472,0,0,1-1.422-2.733,2.659,2.659,0,0,1-.05-.817,7.892,7.892,0,0,1-.472-.635A7.238,7.238,0,0,1,.9,9.99c.009-.134.009-.134.019-.216a2.624,2.624,0,0,1,.359-1.06,8.514,8.514,0,0,1,.092-5.15,8.158,8.158,0,0,1,.489-1.24A2.644,2.644,0,0,1,6.225,1.8a13.75,13.75,0,0,0,5.651,4.245c.225.082.442.15.649.205C13.1,2.6,15.508.418,17.817.223A10.427,10.427,0,0,1,24.474,1c.1.049.2.1.3.15L26.633.4a2.645,2.645,0,0,1,3.6,2.883A2.63,2.63,0,0,1,30.06,7.06l-1.906,1.7a14.462,14.462,0,0,1-1.147,6.073,19.335,19.335,0,0,1-6.595,8.5,17.034,17.034,0,0,1-6.144,2.73,14.648,14.648,0,0,1-3.138.382Z" transform="translate(0 0)" fill="#236cd9"/>
  </g>
</svg>
